<svg xmlns="http://www.w3.org/2000/svg" xmlns:xlink="http://www.w3.org/1999/xlink" width="1920" zoomAndPan="magnify" viewBox="0 0 1440 809.999993" height="1080" preserveAspectRatio="xMidYMid meet" version="1.0"><defs><g/><clipPath id="id1"><path d="M 851 285 L 930 285 L 930 364.167969 L 851 364.167969 Z M 851 285 " clip-rule="nonzero"/></clipPath><clipPath id="id2"><path d="M 546 285 L 626 285 L 626 364.167969 L 546 364.167969 Z M 546 285 " clip-rule="nonzero"/></clipPath></defs><rect x="-144" width="1728" fill="#ffffff" y="-80.999999" height="971.999992" fill-opacity="1"/><rect x="-144" width="1728" fill="#f4f6fc" y="-80.999999" height="971.999992" fill-opacity="1"/><rect x="-144" width="1728" fill="#ffffff" y="-80.999999" height="971.999992" fill-opacity="1"/><rect x="-144" width="1728" fill="#f4f6fc" y="-80.999999" height="971.999992" fill-opacity="1"/><path fill="#282b47" d="M 847.003906 335.863281 L 890.398438 317.195312 L 934.230469 335.320312 C 934.230469 335.320312 942.753906 319.785156 941.710938 316.152344 C 940.6875 312.519531 909.066406 255.449219 906.480469 255.96875 C 903.871094 256.492188 846.882812 284.496094 846.882812 284.496094 L 836.515625 291.761719 L 847.003906 335.863281 " fill-opacity="1" fill-rule="nonzero"/><path fill="#282b47" d="M 541.753906 332.753906 L 584.402344 316.792969 L 629.117188 335.863281 C 629.117188 335.863281 637 319.363281 635.957031 315.769531 C 634.914062 312.15625 603.152344 255.449219 600.542969 255.96875 C 597.9375 256.492188 540.648438 284.316406 540.648438 284.316406 L 530.242188 291.542969 L 541.753906 332.753906 " fill-opacity="1" fill-rule="nonzero"/><path fill="#f57620" d="M 465.191406 315.25 C 465.191406 317.976562 471.027344 321.472656 474.539062 324.582031 C 475.441406 325.40625 478.910156 326.308594 483.941406 327.210938 C 496.695312 329.539062 519.535156 331.871094 536.398438 332.570312 C 537.679688 301.800781 559.257812 277.308594 585.6875 277.308594 C 612.957031 277.308594 635.054688 303.363281 635.054688 335.484375 L 635.054688 335.863281 L 842.210938 335.863281 L 842.210938 335.484375 C 842.210938 303.363281 864.308594 277.308594 891.582031 277.308594 C 918.851562 277.308594 940.949219 303.363281 940.949219 335.484375 C 940.949219 336.042969 940.929688 336.605469 940.929688 337.167969 C 946.785156 336.066406 957.492188 333.816406 961.542969 333.535156 C 966.976562 333.152344 968.921875 330.804688 973.210938 325.765625 L 973.253906 325.6875 C 973.714844 325.144531 974.113281 324.382812 974.476562 323.4375 C 975.617188 320.566406 976.339844 316.070312 976.660156 310.871094 C 977.203125 301.71875 976.402344 290.398438 973.972656 281.785156 C 973.152344 278.894531 972.289062 276.566406 971.1875 274.597656 C 969.503906 271.507812 967.277344 269.378906 963.886719 267.492188 C 958.132812 264.300781 949.03125 261.871094 933.550781 256.894531 C 932.867188 256.671875 932.144531 256.453125 931.425781 256.25 C 900.34375 247.136719 838.582031 246.714844 832.886719 243.644531 C 827.074219 240.535156 801.40625 225.378906 801.40625 225.378906 C 763.707031 207.855469 750.875 203.195312 713.175781 200.464844 C 675.460938 197.738281 632.347656 205.144531 609.40625 210.964844 C 586.46875 216.804688 532.828125 240.933594 530.882812 240.933594 C 529.722656 240.933594 513.960938 243.023438 501.226562 244.710938 C 492.683594 245.832031 485.507812 246.777344 485.023438 246.777344 C 483.863281 246.777344 479.972656 244.046875 478.027344 245.210938 C 476.082031 246.394531 480.351562 256.109375 480.351562 256.109375 C 480.351562 256.109375 471.027344 285.296875 471.027344 286.84375 C 471.027344 288.410156 464.429688 293.066406 463.648438 295.394531 C 462.867188 297.742188 465.191406 312.519531 465.191406 315.25 " fill-opacity="1" fill-rule="nonzero"/><g clip-path="url(#id1)"><path fill="#171719" d="M 851.417969 324.722656 C 851.417969 346.5625 868.980469 364.269531 890.679688 364.269531 C 912.355469 364.269531 929.921875 346.5625 929.921875 324.722656 C 929.921875 302.863281 912.355469 285.15625 890.679688 285.15625 C 868.980469 285.15625 851.417969 302.863281 851.417969 324.722656 " fill-opacity="1" fill-rule="nonzero"/></g><path fill="#bab9b8" d="M 864.25 324.84375 C 864.25 340.101562 876.058594 352.464844 890.679688 352.464844 C 905.257812 352.464844 917.085938 340.101562 917.085938 324.84375 C 917.085938 309.585938 905.257812 297.222656 890.679688 297.222656 C 876.058594 297.222656 864.25 309.585938 864.25 324.84375 " fill-opacity="1" fill-rule="nonzero"/><path fill="#3e3d3f" d="M 870.085938 325.226562 L 870.085938 325.425781 C 870.085938 326.75 870.226562 328.074219 870.484375 329.339844 C 871.808594 335.703125 876.039062 340.984375 881.753906 343.671875 C 882.917969 344.234375 884.160156 344.695312 885.464844 345.019531 C 887.070312 345.417969 888.734375 345.640625 890.476562 345.640625 C 894.046875 345.640625 897.414062 344.714844 900.34375 343.089844 C 901.507812 342.46875 902.589844 341.707031 903.589844 340.863281 C 907.902344 337.230469 910.691406 331.828125 910.851562 325.785156 L 910.871094 325.226562 C 910.871094 324.082031 910.789062 322.9375 910.589844 321.851562 C 909.488281 315.207031 905.175781 309.648438 899.320312 306.835938 C 898.136719 306.253906 896.914062 305.792969 895.632812 305.472656 C 893.988281 305.03125 892.261719 304.808594 890.476562 304.808594 C 886.308594 304.808594 882.4375 306.054688 879.226562 308.203125 C 878.125 308.925781 877.101562 309.75 876.160156 310.691406 C 872.410156 314.386719 870.085938 319.542969 870.085938 325.226562 " fill-opacity="1" fill-rule="nonzero"/><path fill="#a09db1" d="M 886.585938 330.34375 L 881.753906 343.671875 C 882.917969 344.234375 884.160156 344.695312 885.464844 345.019531 L 890.316406 331.628906 L 890.398438 331.648438 L 891.699219 331.507812 L 900.34375 343.089844 C 901.507812 342.46875 902.589844 341.707031 903.589844 340.863281 L 895.128906 329.539062 C 895.769531 328.816406 896.234375 327.996094 896.472656 327.050781 L 910.851562 325.785156 L 910.871094 325.226562 C 910.871094 324.082031 910.789062 322.9375 910.589844 321.851562 L 896.273438 323.117188 C 895.871094 322.09375 895.191406 321.230469 894.328125 320.546875 L 899.320312 306.835938 C 898.136719 306.253906 896.914062 305.792969 895.632812 305.472656 L 890.636719 319.203125 L 890.398438 319.164062 C 889.476562 319.164062 888.613281 319.382812 887.8125 319.726562 L 879.226562 308.203125 C 878.125 308.925781 877.101562 309.75 876.160156 310.691406 L 884.882812 322.375 C 884.582031 322.9375 884.320312 323.539062 884.203125 324.179688 L 870.085938 325.425781 C 870.085938 326.75 870.226562 328.074219 870.484375 329.339844 L 884.703125 328.074219 C 885.144531 329 885.785156 329.761719 886.585938 330.34375 " fill-opacity="1" fill-rule="nonzero"/><g clip-path="url(#id2)"><path fill="#171719" d="M 546.683594 324.722656 C 546.683594 346.5625 564.269531 364.269531 585.945312 364.269531 C 607.625 364.269531 625.207031 346.5625 625.207031 324.722656 C 625.207031 302.863281 607.625 285.15625 585.945312 285.15625 C 564.269531 285.15625 546.683594 302.863281 546.683594 324.722656 " fill-opacity="1" fill-rule="nonzero"/></g><path fill="#bab9b8" d="M 559.519531 324.84375 C 559.519531 340.101562 571.347656 352.464844 585.945312 352.464844 C 600.542969 352.464844 612.375 340.101562 612.375 324.84375 C 612.375 309.585938 600.542969 297.222656 585.945312 297.222656 C 571.347656 297.222656 559.519531 309.585938 559.519531 324.84375 " fill-opacity="1" fill-rule="nonzero"/><path fill="#3e3d3f" d="M 565.351562 325.226562 L 565.351562 325.425781 C 565.375 326.75 565.515625 328.074219 565.773438 329.339844 C 567.078125 335.703125 571.328125 340.984375 577.023438 343.671875 C 578.207031 344.234375 579.449219 344.695312 580.734375 345.019531 C 582.335938 345.417969 584.023438 345.640625 585.746094 345.640625 C 589.335938 345.640625 592.703125 344.714844 595.613281 343.089844 C 596.773438 342.46875 597.859375 341.707031 598.859375 340.863281 C 603.191406 337.230469 605.980469 331.828125 606.140625 325.785156 L 606.140625 325.226562 C 606.140625 324.082031 606.058594 322.9375 605.859375 321.851562 C 604.753906 315.207031 600.464844 309.648438 594.589844 306.835938 C 593.425781 306.253906 592.203125 305.792969 590.917969 305.472656 C 589.277344 305.03125 587.53125 304.808594 585.746094 304.808594 C 581.59375 304.808594 577.726562 306.054688 574.515625 308.203125 C 573.394531 308.925781 572.390625 309.75 571.449219 310.691406 C 567.679688 314.386719 565.351562 319.542969 565.351562 325.226562 " fill-opacity="1" fill-rule="nonzero"/><path fill="#a09db1" d="M 581.855469 330.34375 L 577.023438 343.671875 C 578.207031 344.234375 579.449219 344.695312 580.734375 345.019531 L 585.585938 331.628906 L 585.667969 331.648438 L 586.96875 331.507812 L 595.613281 343.089844 C 596.773438 342.46875 597.859375 341.707031 598.859375 340.863281 L 590.417969 329.539062 C 591.039062 328.816406 591.5 327.996094 591.761719 327.050781 L 606.140625 325.785156 L 606.140625 325.226562 C 606.140625 324.082031 606.058594 322.9375 605.859375 321.851562 L 591.5625 323.117188 C 591.160156 322.09375 590.457031 321.230469 589.617188 320.546875 L 594.589844 306.835938 C 593.425781 306.253906 592.203125 305.792969 590.917969 305.472656 L 585.925781 319.203125 L 585.667969 319.164062 C 584.765625 319.164062 583.882812 319.382812 583.097656 319.726562 L 574.515625 308.203125 C 573.394531 308.925781 572.390625 309.75 571.449219 310.691406 L 580.171875 322.375 C 579.851562 322.9375 579.589844 323.539062 579.46875 324.179688 L 565.351562 325.425781 C 565.375 326.75 565.515625 328.074219 565.773438 329.339844 L 579.992188 328.074219 C 580.433594 329 581.074219 329.761719 581.855469 330.34375 " fill-opacity="1" fill-rule="nonzero"/><path fill="#f7974d" d="M 711.253906 264.039062 L 725.851562 264.039062 C 725.808594 263.359375 725.488281 262.714844 725.046875 262.253906 C 724.527344 261.75 723.804688 261.429688 723.023438 261.429688 L 714.097656 261.429688 C 712.59375 261.429688 711.371094 262.574219 711.253906 264.039062 " fill-opacity="1" fill-rule="nonzero"/><path fill="#e85b1b" d="M 711.253906 264.28125 C 711.253906 265.0625 711.574219 265.765625 712.074219 266.289062 C 712.59375 266.808594 713.316406 267.132812 714.097656 267.132812 L 723.023438 267.132812 C 724.585938 267.132812 725.871094 265.847656 725.871094 264.28125 L 725.851562 264.039062 L 711.253906 264.039062 L 711.253906 264.28125 " fill-opacity="1" fill-rule="nonzero"/><path fill="#f7974d" d="M 622.121094 264.039062 L 636.71875 264.039062 C 636.660156 263.359375 636.359375 262.714844 635.898438 262.253906 C 635.375 261.75 634.671875 261.429688 633.890625 261.429688 L 624.96875 261.429688 C 623.464844 261.429688 622.242188 262.574219 622.121094 264.039062 " fill-opacity="1" fill-rule="nonzero"/><path fill="#e85b1b" d="M 622.101562 264.28125 C 622.101562 265.0625 622.421875 265.765625 622.941406 266.289062 C 623.464844 266.808594 624.164062 267.132812 624.96875 267.132812 L 633.890625 267.132812 C 635.457031 267.132812 636.738281 265.847656 636.738281 264.28125 L 636.71875 264.039062 L 622.121094 264.039062 L 622.101562 264.28125 " fill-opacity="1" fill-rule="nonzero"/><path fill="#e55a1c" d="M 647.828125 327.535156 L 647.707031 327.273438 C 644.21875 320.546875 613.699219 261.410156 614.21875 257.976562 C 614.742188 254.585938 629.679688 216.925781 630.320312 215.320312 L 631.222656 215.683594 C 631.085938 216.082031 615.703125 254.847656 615.183594 258.117188 C 614.921875 260.648438 634.875 300.332031 648.429688 326.550781 L 702.550781 326.308594 L 702.550781 327.273438 L 647.828125 327.535156 " fill-opacity="1" fill-rule="nonzero"/><path fill="#f79349" d="M 834.453125 317.578125 L 636.597656 302.019531 L 633.890625 314.464844 Z M 834.453125 317.578125 " fill-opacity="1" fill-rule="nonzero"/><path fill="#3b4372" d="M 817.730469 244.429688 C 817.730469 244.429688 591.121094 245.992188 591.121094 244.828125 C 591.121094 243.644531 608.867188 225.417969 638.945312 212.53125 C 670.667969 198.902344 736.496094 206.828125 753.722656 214.21875 C 778.144531 224.675781 817.730469 244.429688 817.730469 244.429688 " fill-opacity="1" fill-rule="nonzero"/><path fill="#ea2230" d="M 480.351562 256.109375 L 501.667969 255.550781 C 503.53125 255.507812 504.835938 257.394531 504.132812 259.121094 L 499.683594 270.121094 C 498.578125 272.832031 495.894531 274.539062 492.984375 274.378906 L 474.777344 273.355469 L 480.351562 256.109375 " fill-opacity="1" fill-rule="nonzero"/><path fill="#e55a1c" d="M 702.089844 327.273438 L 695.070312 207.492188 L 696.03125 207.433594 L 703.011719 326.308594 L 812.734375 326.046875 L 817.246094 244.40625 L 818.210938 244.46875 L 813.65625 327.011719 L 702.089844 327.273438 " fill-opacity="1" fill-rule="nonzero"/><path fill="#4da7dc" d="M 598.378906 241.957031 C 598.378906 241.957031 619.3125 220.058594 653.320312 212.128906 C 670.023438 208.234375 683.640625 208.113281 690.617188 208.757812 L 598.378906 241.957031 " fill-opacity="1" fill-rule="nonzero"/><path fill="#4da7dc" d="M 598.378906 241.957031 L 612.574219 241.859375 L 627.835938 241.71875 L 659.496094 241.457031 L 690.636719 241.195312 L 690.636719 208.777344 C 685.707031 208.316406 677.523438 208.234375 667.296875 209.578125 C 662.964844 210.160156 658.273438 210.984375 653.300781 212.128906 C 647.605469 213.453125 642.273438 215.179688 637.339844 217.128906 C 629.441406 220.257812 622.5625 223.953125 616.90625 227.527344 C 612.976562 229.996094 609.628906 232.402344 606.902344 234.53125 C 601.347656 238.847656 598.378906 241.957031 598.378906 241.957031 " fill-opacity="1" fill-rule="nonzero"/><path fill="#4da7dc" d="M 701.265625 209.539062 L 703.332031 241.4375 L 781.054688 241.699219 C 781.054688 241.699219 787.289062 232.625 779.507812 228.730469 C 771.730469 224.855469 737.78125 207.210938 701.265625 209.539062 " fill-opacity="1" fill-rule="nonzero"/><path fill="#4da7dc" d="M 701.265625 209.539062 L 703.332031 241.4375 L 733.609375 241.558594 L 761.542969 241.636719 L 781.074219 241.699219 C 781.074219 241.699219 787.289062 232.644531 779.507812 228.730469 C 773.835938 225.898438 754.203125 215.703125 729.78125 211.347656 C 720.878906 209.761719 711.351562 208.9375 701.628906 209.519531 L 701.265625 209.539062 " fill-opacity="1" fill-rule="nonzero"/><path fill="#dd551d" d="M 943.273438 326.789062 L 973.210938 325.765625 L 973.253906 325.6875 C 973.414062 325.445312 973.894531 324.621094 974.476562 323.4375 C 975.617188 320.566406 976.339844 316.070312 976.660156 310.871094 L 976.421875 310.191406 L 950.253906 309.144531 L 943.273438 326.789062 " fill-opacity="1" fill-rule="nonzero"/><path fill="#f79349" d="M 842.210938 335.484375 L 842.210938 335.863281 L 847.003906 335.863281 C 846.925781 334.640625 846.882812 333.414062 846.882812 332.171875 C 846.882812 304.570312 866.457031 282.167969 890.617188 282.167969 C 914.761719 282.167969 934.332031 304.570312 934.332031 332.171875 C 934.332031 333.214844 934.292969 334.277344 934.230469 335.320312 C 935.3125 336.867188 936.476562 337.8125 937.058594 337.8125 C 937.460938 337.8125 938.882812 337.570312 940.929688 337.167969 C 940.929688 336.605469 940.949219 336.042969 940.949219 335.484375 C 940.949219 303.34375 918.851562 277.308594 891.582031 277.308594 C 864.308594 277.308594 842.210938 303.34375 842.210938 335.484375 " fill-opacity="1" fill-rule="nonzero"/><path fill="#f79349" d="M 541.753906 332.753906 L 541.753906 332.171875 C 541.753906 304.570312 561.34375 282.167969 585.484375 282.167969 C 609.628906 282.167969 629.21875 304.570312 629.21875 332.171875 C 629.21875 333.414062 629.199219 334.640625 629.117188 335.863281 L 635.035156 335.863281 L 635.035156 335.484375 C 635.035156 303.34375 612.9375 277.308594 585.6875 277.308594 C 559.257812 277.308594 537.679688 301.800781 536.398438 332.570312 C 538.261719 332.652344 540.046875 332.710938 541.753906 332.753906 " fill-opacity="1" fill-rule="nonzero"/><path fill="#f7d3b8" d="M 465.171875 314.527344 C 464.890625 310.550781 462.925781 297.582031 463.648438 295.394531 C 462.925781 297.582031 464.890625 310.550781 465.171875 314.527344 M 463.648438 295.394531 C 464.429688 293.066406 471.027344 288.410156 471.027344 286.84375 C 471.027344 286.160156 472.875 279.980469 474.917969 273.355469 L 474.9375 273.355469 C 472.875 280 471.027344 286.160156 471.027344 286.84375 C 471.027344 288.410156 464.429688 293.066406 463.648438 295.394531 M 485.023438 246.777344 C 485.507812 246.777344 492.683594 245.832031 501.226562 244.710938 C 492.683594 245.832031 485.507812 246.777344 485.023438 246.777344 M 485.003906 246.777344 C 484.023438 246.757812 481.234375 244.929688 479.210938 244.929688 C 478.769531 244.929688 478.367188 245.011719 478.027344 245.210938 C 477.664062 245.433594 477.523438 245.933594 477.523438 246.636719 C 477.523438 245.933594 477.664062 245.433594 478.027344 245.210938 C 478.367188 245.011719 478.769531 244.910156 479.210938 244.910156 C 481.234375 244.910156 484.023438 246.757812 485.003906 246.777344 " fill-opacity="1" fill-rule="nonzero"/><path fill="#f46d16" d="M 483.941406 327.210938 C 478.910156 326.308594 475.441406 325.40625 474.539062 324.582031 C 471.027344 321.472656 465.191406 317.976562 465.191406 315.25 C 465.191406 315.066406 465.191406 314.828125 465.171875 314.527344 C 464.890625 310.550781 462.925781 297.582031 463.648438 295.394531 C 464.429688 293.066406 471.027344 288.410156 471.027344 286.84375 C 471.027344 286.160156 472.875 280 474.9375 273.355469 L 485.566406 273.957031 C 482.898438 280.078125 480.953125 285.800781 480.753906 289.957031 C 480.230469 299.632812 482.398438 316.613281 483.941406 327.210938 M 480.351562 256.109375 C 480.332031 256.070312 477.523438 249.648438 477.523438 246.636719 C 477.523438 245.933594 477.664062 245.433594 478.027344 245.210938 C 478.367188 245.011719 478.769531 244.929688 479.210938 244.929688 C 481.234375 244.929688 484.023438 246.757812 485.003906 246.777344 C 485.003906 246.777344 485.023438 246.777344 485.023438 246.777344 C 485.507812 246.777344 492.683594 245.832031 501.226562 244.710938 C 499.523438 247.480469 497.238281 251.351562 494.769531 255.730469 L 480.351562 256.109375 " fill-opacity="1" fill-rule="nonzero"/><path fill="#e72f25" d="M 485.566406 273.957031 L 474.9375 273.355469 L 474.917969 273.355469 C 477.484375 265.105469 480.351562 256.109375 480.351562 256.109375 L 494.769531 255.730469 C 491.621094 261.371094 488.234375 267.855469 485.566406 273.957031 " fill-opacity="1" fill-rule="nonzero"/><path fill="#303c70" d="M 795.191406 240.933594 L 789.835938 230.214844 C 789.292969 229.132812 788.230469 228.429688 787.027344 228.367188 L 775.199219 227.625 C 772.289062 227.464844 769.765625 229.671875 769.582031 232.605469 L 769.464844 234.429688 C 769.304688 237.382812 771.527344 239.910156 774.457031 240.070312 L 790.898438 240.734375 L 795.191406 240.933594 " fill-opacity="1" fill-rule="nonzero"/><path fill="#d6edfa" d="M 934.132812 265.644531 L 938.601562 278.089844 L 946.363281 278.8125 L 955.304688 279.636719 L 959.597656 276.726562 L 971.066406 276.546875 L 971.1875 274.597656 C 969.503906 271.507812 967.277344 269.378906 963.886719 267.492188 L 942.414062 266.148438 L 934.132812 265.644531 " fill-opacity="1" fill-rule="nonzero"/><path fill="#fcfeff" d="M 931.203125 256.171875 C 900.785156 247.359375 841.492188 246.714844 833.390625 243.867188 C 841.492188 246.714844 900.785156 247.359375 931.203125 256.171875 " fill-opacity="1" fill-rule="nonzero"/><path fill="#f57b22" d="M 931.425781 256.25 C 893.226562 254.425781 818.492188 251.03125 818.492188 251.03125 L 818.992188 250.792969 L 819.914062 250.792969 L 833.390625 243.867188 C 841.492188 246.714844 900.785156 247.359375 931.203125 256.171875 C 931.285156 256.191406 931.363281 256.230469 931.425781 256.25 " fill-opacity="1" fill-rule="nonzero"/><path fill="#f25329" d="M 934.132812 265.644531 L 938.601562 278.089844 L 946.363281 278.8125 L 942.414062 266.148438 L 934.132812 265.644531 " fill-opacity="1" fill-rule="nonzero"/><path fill="#fcfeff" d="M 833.390625 243.867188 C 833.1875 243.804688 833.027344 243.726562 832.886719 243.644531 C 827.074219 240.535156 801.40625 225.378906 801.40625 225.378906 C 763.707031 207.855469 750.875 203.195312 713.175781 200.464844 C 707.621094 200.066406 701.96875 199.882812 696.253906 199.882812 C 673.773438 199.882812 650.753906 202.714844 632.167969 206.085938 C 650.996094 202.59375 674.636719 199.625 697.695312 199.625 C 703.390625 199.625 709.066406 199.804688 714.601562 200.207031 C 752.296875 202.933594 765.132812 207.59375 802.828125 225.117188 C 802.828125 225.117188 828.476562 240.273438 834.3125 243.382812 L 833.390625 243.867188 " fill-opacity="1" fill-rule="nonzero"/><path fill="#f57b22" d="M 615.863281 251.957031 L 532.308594 240.675781 C 534.253906 240.675781 587.890625 216.546875 610.832031 210.703125 C 616.746094 209.199219 624.003906 207.59375 632.167969 206.085938 C 650.753906 202.714844 673.773438 199.882812 696.253906 199.882812 C 701.96875 199.882812 707.621094 200.066406 713.175781 200.464844 C 750.875 203.195312 763.707031 207.855469 801.40625 225.378906 C 801.40625 225.378906 827.074219 240.535156 832.886719 243.644531 L 818.992188 250.792969 L 817.867188 250.792969 L 818.210938 244.46875 L 817.730469 244.429688 C 817.429688 244.289062 805.195312 238.183594 790.238281 231.019531 L 789.835938 230.214844 C 789.292969 229.132812 788.230469 228.429688 787.027344 228.367188 L 784.320312 228.1875 C 773.894531 223.25 762.765625 218.089844 753.722656 214.21875 C 743.335938 209.761719 715.261719 205.101562 687.671875 205.101562 C 669.503906 205.101562 651.539062 207.109375 638.945312 212.53125 C 636.195312 213.695312 633.570312 214.917969 631.042969 216.164062 C 631.144531 215.882812 631.222656 215.703125 631.222656 215.683594 L 630.320312 215.320312 C 630.261719 215.480469 630.0625 216.003906 629.742188 216.804688 C 605.277344 229.113281 591.121094 243.785156 591.121094 244.828125 C 591.121094 245.070312 601.867188 245.191406 618.691406 245.230469 C 617.75 247.71875 616.90625 250.007812 616.207031 251.957031 L 615.863281 251.957031 M 617.226562 251.9375 C 617.949219 249.988281 618.792969 247.699219 619.734375 245.25 C 623.726562 245.25 628.035156 245.25 632.628906 245.25 C 651.136719 245.25 673.996094 245.191406 697.277344 245.089844 L 697.636719 251.492188 L 617.226562 251.9375 M 698.621094 251.472656 L 698.257812 245.089844 C 753.824219 244.871094 811.390625 244.46875 817.246094 244.429688 L 816.886719 250.8125 L 698.621094 251.472656 " fill-opacity="1" fill-rule="nonzero"/><path fill="#e15f1b" d="M 616.207031 251.957031 C 616.90625 250.007812 617.75 247.71875 618.691406 245.230469 C 619.03125 245.230469 619.375 245.230469 619.734375 245.25 C 618.792969 247.699219 617.949219 249.988281 617.226562 251.9375 L 616.207031 251.957031 M 629.742188 216.804688 C 630.0625 216.003906 630.261719 215.480469 630.320312 215.320312 L 631.222656 215.683594 C 631.222656 215.703125 631.144531 215.882812 631.042969 216.164062 C 630.601562 216.386719 630.160156 216.585938 629.742188 216.804688 " fill-opacity="1" fill-rule="nonzero"/><path fill="#3f4979" d="M 632.628906 245.25 C 628.035156 245.25 623.726562 245.25 619.734375 245.25 C 619.375 245.230469 619.03125 245.230469 618.691406 245.230469 C 601.867188 245.191406 591.121094 245.070312 591.121094 244.828125 C 591.121094 243.785156 605.277344 229.113281 629.742188 216.804688 C 630.160156 216.585938 630.601562 216.386719 631.042969 216.164062 C 633.570312 214.917969 636.195312 213.695312 638.945312 212.53125 C 651.539062 207.109375 669.503906 205.101562 687.671875 205.101562 C 715.261719 205.101562 743.335938 209.761719 753.722656 214.21875 C 762.765625 218.089844 773.894531 223.25 784.320312 228.1875 L 777.605469 227.785156 C 770.207031 224.074219 751.957031 215.320312 729.78125 211.347656 C 728.636719 211.144531 727.496094 210.945312 726.332031 210.785156 C 720.414062 209.859375 714.261719 209.320312 707.984375 209.320312 C 705.757812 209.320312 703.511719 209.398438 701.265625 209.539062 L 702.628906 230.816406 L 703.332031 241.4375 L 781.054688 241.699219 L 781.074219 241.699219 C 781.074219 241.699219 781.414062 241.195312 781.855469 240.375 L 790.898438 240.734375 L 795.191406 240.933594 L 790.238281 231.019531 C 805.195312 238.183594 817.429688 244.289062 817.730469 244.429688 L 817.246094 244.40625 L 817.246094 244.429688 C 811.390625 244.46875 753.824219 244.871094 698.257812 245.089844 L 696.03125 207.433594 L 695.070312 207.492188 L 697.277344 245.089844 C 673.996094 245.191406 651.136719 245.25 632.628906 245.25 M 598.578125 241.757812 C 598.4375 241.898438 598.378906 241.957031 598.378906 241.957031 L 612.574219 241.859375 L 627.835938 241.71875 L 659.496094 241.457031 L 690.636719 241.195312 L 690.636719 208.777344 C 690.617188 208.777344 690.617188 208.777344 690.617188 208.757812 C 688.714844 208.578125 686.308594 208.476562 683.480469 208.476562 C 683.179688 208.476562 682.859375 208.476562 682.539062 208.476562 C 678.265625 208.515625 673.113281 208.816406 667.296875 209.578125 C 665.414062 209.839844 663.46875 210.121094 661.441406 210.484375 C 659.917969 210.746094 658.375 211.046875 656.769531 211.367188 C 655.628906 211.605469 654.484375 211.867188 653.300781 212.128906 C 647.605469 213.453125 642.273438 215.179688 637.339844 217.128906 C 629.441406 220.257812 622.5625 223.953125 616.90625 227.527344 C 614.941406 228.75 613.136719 229.976562 611.492188 231.140625 C 610.089844 232.121094 608.804688 233.066406 607.644531 233.96875 C 607.382812 234.148438 607.140625 234.351562 606.902344 234.53125 C 605.617188 235.535156 604.496094 236.457031 603.492188 237.300781 C 600.804688 239.570312 599.121094 241.214844 598.578125 241.757812 " fill-opacity="1" fill-rule="nonzero"/><path fill="#e15f1b" d="M 697.636719 251.492188 L 697.277344 245.089844 L 695.070312 207.492188 L 696.03125 207.433594 L 698.257812 245.089844 L 698.621094 251.472656 L 697.636719 251.492188 M 816.886719 250.8125 L 817.246094 244.429688 L 817.246094 244.40625 L 817.730469 244.429688 L 818.210938 244.46875 L 817.867188 250.792969 L 816.886719 250.8125 " fill-opacity="1" fill-rule="nonzero"/><path fill="#4fa9dc" d="M 598.578125 241.757812 C 599.121094 241.214844 600.804688 239.570312 603.492188 237.300781 C 600.804688 239.570312 599.121094 241.214844 598.578125 241.757812 M 607.644531 233.96875 C 608.804688 233.066406 610.089844 232.121094 611.492188 231.140625 C 610.089844 232.121094 608.804688 233.066406 607.644531 233.96875 M 656.769531 211.367188 C 658.375 211.046875 659.917969 210.746094 661.441406 210.484375 C 659.917969 210.746094 658.375 211.046875 656.769531 211.367188 M 690.617188 208.757812 C 688.695312 208.578125 686.265625 208.476562 683.417969 208.476562 C 683.117188 208.476562 682.839844 208.476562 682.539062 208.476562 C 682.859375 208.476562 683.179688 208.476562 683.480469 208.476562 C 686.308594 208.476562 688.714844 208.578125 690.617188 208.757812 " fill-opacity="1" fill-rule="nonzero"/><path fill="#4fa9dc" d="M 598.378906 241.957031 C 598.378906 241.957031 598.4375 241.898438 598.578125 241.757812 C 599.121094 241.214844 600.804688 239.570312 603.492188 237.300781 C 604.496094 236.457031 605.617188 235.535156 606.902344 234.53125 C 607.140625 234.351562 607.382812 234.148438 607.644531 233.96875 C 608.804688 233.066406 610.089844 232.121094 611.492188 231.140625 C 613.136719 229.976562 614.941406 228.75 616.90625 227.527344 C 622.5625 223.953125 629.441406 220.257812 637.339844 217.128906 C 642.273438 215.179688 647.605469 213.453125 653.300781 212.128906 C 654.484375 211.867188 655.628906 211.605469 656.769531 211.367188 C 658.375 211.046875 659.917969 210.746094 661.441406 210.484375 C 663.46875 210.121094 665.414062 209.839844 667.296875 209.578125 C 673.113281 208.816406 678.265625 208.515625 682.539062 208.476562 C 682.839844 208.476562 683.117188 208.476562 683.417969 208.476562 C 686.265625 208.476562 688.695312 208.578125 690.617188 208.757812 C 690.617188 208.777344 690.617188 208.777344 690.636719 208.777344 L 690.636719 234.753906 L 667.296875 209.578125 C 662.964844 210.160156 658.273438 210.984375 653.300781 212.128906 C 647.605469 213.453125 642.273438 215.179688 637.339844 217.128906 L 659.496094 241.457031 L 627.835938 241.71875 L 616.90625 227.527344 C 612.976562 229.996094 609.628906 232.402344 606.902344 234.53125 C 608.828125 237.039062 610.75 239.488281 612.574219 241.859375 L 598.378906 241.957031 " fill-opacity="1" fill-rule="nonzero"/><path fill="#4fa9dc" d="M 781.054688 241.699219 L 703.332031 241.4375 L 702.628906 230.816406 L 703.332031 241.4375 L 733.609375 241.558594 L 761.542969 241.636719 L 781.054688 241.699219 M 726.332031 210.785156 C 720.414062 209.882812 714.261719 209.339844 707.984375 209.339844 C 705.878906 209.339844 703.753906 209.398438 701.628906 209.519531 L 701.265625 209.539062 C 703.511719 209.398438 705.757812 209.320312 707.984375 209.320312 C 714.261719 209.320312 720.414062 209.859375 726.332031 210.785156 " fill-opacity="1" fill-rule="nonzero"/><path fill="#4fa9dc" d="M 781.074219 241.699219 L 781.054688 241.699219 L 761.542969 241.636719 L 729.78125 211.347656 C 722.84375 210.101562 715.503906 209.339844 707.984375 209.339844 C 705.878906 209.339844 703.753906 209.398438 701.628906 209.519531 L 733.609375 241.558594 L 703.332031 241.4375 L 702.628906 230.816406 L 701.265625 209.539062 L 701.628906 209.519531 C 703.753906 209.398438 705.878906 209.339844 707.984375 209.339844 C 714.261719 209.339844 720.414062 209.882812 726.332031 210.785156 C 727.496094 210.945312 728.636719 211.144531 729.78125 211.347656 C 751.957031 215.320312 770.207031 224.074219 777.605469 227.785156 L 775.199219 227.625 C 775.097656 227.625 774.976562 227.625 774.878906 227.625 C 772.089844 227.625 769.765625 229.792969 769.582031 232.605469 L 769.464844 234.429688 C 769.304688 237.382812 771.527344 239.910156 774.457031 240.070312 L 781.855469 240.375 C 781.414062 241.195312 781.074219 241.699219 781.074219 241.699219 " fill-opacity="1" fill-rule="nonzero"/><path fill="#82cee5" d="M 761.542969 241.636719 L 733.609375 241.558594 L 701.628906 209.519531 C 703.753906 209.398438 705.878906 209.339844 707.984375 209.339844 C 715.503906 209.339844 722.84375 210.101562 729.78125 211.347656 L 761.542969 241.636719 " fill-opacity="1" fill-rule="nonzero"/><path fill="#82cee5" d="M 659.496094 241.457031 L 637.339844 217.128906 C 642.273438 215.179688 647.605469 213.453125 653.300781 212.128906 C 658.273438 210.984375 662.964844 210.160156 667.296875 209.578125 L 690.636719 234.753906 L 690.636719 241.195312 L 659.496094 241.457031 " fill-opacity="1" fill-rule="nonzero"/><path fill="#82cee5" d="M 612.574219 241.859375 C 610.75 239.488281 608.828125 237.039062 606.902344 234.53125 C 609.628906 232.402344 612.976562 229.996094 616.90625 227.527344 L 627.835938 241.71875 L 612.574219 241.859375 " fill-opacity="1" fill-rule="nonzero"/><path fill="#354277" d="M 795.191406 240.933594 L 790.898438 240.734375 L 781.855469 240.375 L 774.457031 240.070312 C 771.527344 239.910156 769.304688 237.382812 769.464844 234.429688 L 769.582031 232.605469 C 769.765625 229.792969 772.089844 227.625 774.878906 227.625 C 774.976562 227.625 775.097656 227.625 775.199219 227.625 L 777.605469 227.785156 L 784.320312 228.1875 L 787.027344 228.367188 C 788.230469 228.429688 789.292969 229.132812 789.835938 230.214844 L 795.191406 240.933594 " fill-opacity="1" fill-rule="nonzero"/><path fill="#f8fdfe" d="M 833.390625 243.867188 C 833.1875 243.804688 833.027344 243.726562 832.886719 243.644531 C 833.027344 243.726562 833.1875 243.804688 833.390625 243.867188 " fill-opacity="1" fill-rule="nonzero"/><path fill="#f58028" d="M 818.992188 250.792969 L 832.886719 243.644531 C 833.027344 243.726562 833.1875 243.804688 833.390625 243.867188 L 819.914062 250.792969 L 818.992188 250.792969 " fill-opacity="1" fill-rule="nonzero"/><g fill="#d32f23" fill-opacity="0.4196"><g transform="translate(370.096291, 511.634131)"><g><path d="M 48.582031 1.273438 C 78.28125 1.273438 91.953125 -20.476562 91.953125 -44.960938 C 91.953125 -69.441406 78.28125 -91.191406 48.582031 -91.191406 C 18.886719 -91.191406 5.214844 -69.441406 5.214844 -44.960938 C 5.214844 -20.476562 18.886719 1.273438 48.582031 1.273438 Z M 48.582031 -13.035156 C 29.316406 -13.035156 22.257812 -27.980469 22.257812 -44.960938 C 22.257812 -61.875 29.316406 -76.816406 48.582031 -76.816406 C 67.851562 -76.816406 74.910156 -61.875 74.910156 -44.960938 C 74.910156 -27.980469 67.851562 -13.035156 48.582031 -13.035156 Z M 48.582031 -13.035156 "/></g></g></g><g fill="#d32f23" fill-opacity="0.4196"><g transform="translate(467.260138, 511.634131)"><g><path d="M 11.574219 0.128906 L 27.726562 0.128906 L 27.726562 -38.410156 L 38.535156 -38.410156 L 60.667969 0.128906 L 79.171875 0.128906 L 54.179688 -40 C 64.355469 -43.496094 71.730469 -52.082031 71.730469 -63.402344 C 71.730469 -80.253906 57.421875 -89.855469 40.636719 -89.855469 L 11.574219 -89.855469 Z M 27.851562 -51.574219 L 27.851562 -75.417969 L 40.761719 -75.417969 C 49.984375 -75.417969 55.769531 -70.585938 55.769531 -63.144531 C 55.769531 -56.40625 50.683594 -51.953125 42.097656 -51.574219 Z M 27.851562 -51.574219 "/></g></g></g><g fill="#d32f23" fill-opacity="0.4196"><g transform="translate(547.890869, 511.634131)"><g><path d="M 29.441406 0 L 45.59375 0 L 45.59375 -75.417969 L 73.703125 -75.417969 L 73.703125 -89.855469 L 1.273438 -89.855469 L 1.273438 -75.417969 L 29.441406 -75.417969 Z M 29.441406 0 "/></g></g></g><g fill="#d32f23" fill-opacity="0.4196"><g transform="translate(622.925776, 511.634131)"><g><path d="M 11.574219 0 L 37.519531 0 C 67.726562 0 84.386719 -16.28125 84.386719 -44.257812 C 84.386719 -73.449219 68.234375 -89.855469 37.644531 -89.855469 L 11.574219 -89.855469 Z M 27.726562 -14.816406 L 27.726562 -75.039062 L 37.390625 -75.039062 C 59.519531 -75.039062 68.234375 -66.261719 68.234375 -44.960938 C 68.234375 -22.511719 55.769531 -14.816406 35.929688 -14.816406 Z M 27.726562 -14.816406 "/></g></g></g><g fill="#d32f23" fill-opacity="0.4196"><g transform="translate(712.522533, 511.634131)"><g><path d="M 11.574219 0.128906 L 27.726562 0.128906 L 27.726562 -38.410156 L 38.535156 -38.410156 L 60.667969 0.128906 L 79.171875 0.128906 L 54.179688 -40 C 64.355469 -43.496094 71.730469 -52.082031 71.730469 -63.402344 C 71.730469 -80.253906 57.421875 -89.855469 40.636719 -89.855469 L 11.574219 -89.855469 Z M 27.851562 -51.574219 L 27.851562 -75.417969 L 40.761719 -75.417969 C 49.984375 -75.417969 55.769531 -70.585938 55.769531 -63.144531 C 55.769531 -56.40625 50.683594 -51.953125 42.097656 -51.574219 Z M 27.851562 -51.574219 "/></g></g></g><g fill="#d32f23" fill-opacity="0.4196"><g transform="translate(793.153264, 511.634131)"><g><path d="M 11.574219 0 L 27.726562 0 L 27.726562 -89.855469 L 11.574219 -89.855469 Z M 11.574219 0 "/></g></g></g><g fill="#d32f23" fill-opacity="0.4196"><g transform="translate(832.451223, 511.634131)"><g><path d="M 36.753906 0 L 48.839844 0 L 84.640625 -89.855469 L 66.960938 -89.855469 L 42.859375 -26.199219 L 18.632812 -89.855469 L 0.761719 -89.855469 Z M 36.753906 0 "/></g></g></g><g fill="#d32f23" fill-opacity="0.4196"><g transform="translate(917.85113, 511.634131)"><g><path d="M 11.574219 0 L 71.347656 0 L 71.347656 -15.261719 L 27.726562 -15.261719 L 27.726562 -37.519531 L 68.359375 -37.519531 L 68.359375 -52.335938 L 27.726562 -52.335938 L 27.726562 -75.039062 L 71.347656 -75.039062 L 71.347656 -89.855469 L 11.574219 -89.855469 Z M 11.574219 0 "/></g></g></g><g fill="#d32f23" fill-opacity="0.4196"><g transform="translate(997.019341, 511.634131)"><g><path d="M 11.574219 0.128906 L 27.726562 0.128906 L 27.726562 -38.410156 L 38.535156 -38.410156 L 60.667969 0.128906 L 79.171875 0.128906 L 54.179688 -40 C 64.355469 -43.496094 71.730469 -52.082031 71.730469 -63.402344 C 71.730469 -80.253906 57.421875 -89.855469 40.636719 -89.855469 L 11.574219 -89.855469 Z M 27.851562 -51.574219 L 27.851562 -75.417969 L 40.761719 -75.417969 C 49.984375 -75.417969 55.769531 -70.585938 55.769531 -63.144531 C 55.769531 -56.40625 50.683594 -51.953125 42.097656 -51.574219 Z M 27.851562 -51.574219 "/></g></g></g><g fill="#050a30" fill-opacity="1"><g transform="translate(366.224916, 508.148324)"><g><path d="M 48.582031 1.273438 C 78.28125 1.273438 91.953125 -20.476562 91.953125 -44.960938 C 91.953125 -69.441406 78.28125 -91.191406 48.582031 -91.191406 C 18.886719 -91.191406 5.214844 -69.441406 5.214844 -44.960938 C 5.214844 -20.476562 18.886719 1.273438 48.582031 1.273438 Z M 48.582031 -13.035156 C 29.316406 -13.035156 22.257812 -27.980469 22.257812 -44.960938 C 22.257812 -61.875 29.316406 -76.816406 48.582031 -76.816406 C 67.851562 -76.816406 74.910156 -61.875 74.910156 -44.960938 C 74.910156 -27.980469 67.851562 -13.035156 48.582031 -13.035156 Z M 48.582031 -13.035156 "/></g></g></g><g fill="#050a30" fill-opacity="1"><g transform="translate(463.388763, 508.148324)"><g><path d="M 11.574219 0.128906 L 27.726562 0.128906 L 27.726562 -38.410156 L 38.535156 -38.410156 L 60.667969 0.128906 L 79.171875 0.128906 L 54.179688 -40 C 64.355469 -43.496094 71.730469 -52.082031 71.730469 -63.402344 C 71.730469 -80.253906 57.421875 -89.855469 40.636719 -89.855469 L 11.574219 -89.855469 Z M 27.851562 -51.574219 L 27.851562 -75.417969 L 40.761719 -75.417969 C 49.984375 -75.417969 55.769531 -70.585938 55.769531 -63.144531 C 55.769531 -56.40625 50.683594 -51.953125 42.097656 -51.574219 Z M 27.851562 -51.574219 "/></g></g></g><g fill="#050a30" fill-opacity="1"><g transform="translate(544.019494, 508.148324)"><g><path d="M 29.441406 0 L 45.59375 0 L 45.59375 -75.417969 L 73.703125 -75.417969 L 73.703125 -89.855469 L 1.273438 -89.855469 L 1.273438 -75.417969 L 29.441406 -75.417969 Z M 29.441406 0 "/></g></g></g><g fill="#050a30" fill-opacity="1"><g transform="translate(619.054401, 508.148324)"><g><path d="M 11.574219 0 L 37.519531 0 C 67.726562 0 84.386719 -16.28125 84.386719 -44.257812 C 84.386719 -73.449219 68.234375 -89.855469 37.644531 -89.855469 L 11.574219 -89.855469 Z M 27.726562 -14.816406 L 27.726562 -75.039062 L 37.390625 -75.039062 C 59.519531 -75.039062 68.234375 -66.261719 68.234375 -44.960938 C 68.234375 -22.511719 55.769531 -14.816406 35.929688 -14.816406 Z M 27.726562 -14.816406 "/></g></g></g><g fill="#050a30" fill-opacity="1"><g transform="translate(708.651158, 508.148324)"><g><path d="M 11.574219 0.128906 L 27.726562 0.128906 L 27.726562 -38.410156 L 38.535156 -38.410156 L 60.667969 0.128906 L 79.171875 0.128906 L 54.179688 -40 C 64.355469 -43.496094 71.730469 -52.082031 71.730469 -63.402344 C 71.730469 -80.253906 57.421875 -89.855469 40.636719 -89.855469 L 11.574219 -89.855469 Z M 27.851562 -51.574219 L 27.851562 -75.417969 L 40.761719 -75.417969 C 49.984375 -75.417969 55.769531 -70.585938 55.769531 -63.144531 C 55.769531 -56.40625 50.683594 -51.953125 42.097656 -51.574219 Z M 27.851562 -51.574219 "/></g></g></g><g fill="#050a30" fill-opacity="1"><g transform="translate(789.281889, 508.148324)"><g><path d="M 11.574219 0 L 27.726562 0 L 27.726562 -89.855469 L 11.574219 -89.855469 Z M 11.574219 0 "/></g></g></g><g fill="#050a30" fill-opacity="1"><g transform="translate(828.579848, 508.148324)"><g><path d="M 36.753906 0 L 48.839844 0 L 84.640625 -89.855469 L 66.960938 -89.855469 L 42.859375 -26.199219 L 18.632812 -89.855469 L 0.761719 -89.855469 Z M 36.753906 0 "/></g></g></g><g fill="#050a30" fill-opacity="1"><g transform="translate(913.979755, 508.148324)"><g><path d="M 11.574219 0 L 71.347656 0 L 71.347656 -15.261719 L 27.726562 -15.261719 L 27.726562 -37.519531 L 68.359375 -37.519531 L 68.359375 -52.335938 L 27.726562 -52.335938 L 27.726562 -75.039062 L 71.347656 -75.039062 L 71.347656 -89.855469 L 11.574219 -89.855469 Z M 11.574219 0 "/></g></g></g><g fill="#050a30" fill-opacity="1"><g transform="translate(993.147966, 508.148324)"><g><path d="M 11.574219 0.128906 L 27.726562 0.128906 L 27.726562 -38.410156 L 38.535156 -38.410156 L 60.667969 0.128906 L 79.171875 0.128906 L 54.179688 -40 C 64.355469 -43.496094 71.730469 -52.082031 71.730469 -63.402344 C 71.730469 -80.253906 57.421875 -89.855469 40.636719 -89.855469 L 11.574219 -89.855469 Z M 27.851562 -51.574219 L 27.851562 -75.417969 L 40.761719 -75.417969 C 49.984375 -75.417969 55.769531 -70.585938 55.769531 -63.144531 C 55.769531 -56.40625 50.683594 -51.953125 42.097656 -51.574219 Z M 27.851562 -51.574219 "/></g></g></g></svg>